<?xml version="1.0" encoding="UTF-8"?>
<!DOCTYPE svg PUBLIC "-//W3C//DTD SVG 1.1//EN" "http://www.w3.org/Graphics/SVG/1.1/DTD/svg11.dtd">
<!-- Creator: CorelDRAW X7 -->
<svg xmlns="http://www.w3.org/2000/svg" xml:space="preserve" width="200.393mm" height="124.579mm" version="1.1" style="shape-rendering:geometricPrecision; text-rendering:geometricPrecision; image-rendering:optimizeQuality; fill-rule:evenodd; clip-rule:evenodd"
viewBox="0 0 20039 12458"
 xmlns:xlink="http://www.w3.org/1999/xlink">
 <defs>
  <style type="text/css">
   <![CDATA[
    .fil0 {fill:#FEFEFE}
    .fil1 {fill:#FEFEFE;fill-rule:nonzero}
    .fil2 {fill:#FCC00B;fill-opacity:0.580392}
    .fil4 {fill:#E5097F;fill-opacity:0.580392}
    .fil3 {fill:#009DFF;fill-opacity:0.580392}
   ]]>
  </style>
 </defs>
 <g id="Layer_x0020_1">
  <metadata id="CorelCorpID_0Corel-Layer"/>
  <g id="_2593991402048">
   <g>
    <path class="fil0" d="M3518 8234c939,2852 4992,2465 5082,-807 668,482 1400,661 2278,37 691,2239 4541,2538 6485,2202 94,-16 153,-37 241,-52 2824,-558 3478,-4938 237,-6245 63,-1135 -715,-1620 -1703,-1763 -1071,-2597 -4520,-1649 -4840,63 -78,167 -89,377 -141,428 -629,-791 -3138,-624 -3457,235 -48,-250 -104,-1631 -1557,-2053 -1533,-445 -3020,899 -2698,2450 41,196 125,404 134,454 -4177,-509 -4360,5358 -61,5051zm15119 -5465c109,0 198,88 198,198 0,109 -89,197 -198,197 -109,0 -198,-88 -198,-197 0,-110 89,-198 198,-198zm-7779 -1558c-100,55 -118,143 -74,228 41,78 141,109 229,65 186,-95 47,-403 -155,-293zm-10122 1324c-410,90 -299,563 -145,640 84,41 181,76 293,53 313,-65 312,-428 223,-552 -3,-4 -79,-77 -93,-89 -56,-48 -182,-74 -278,-52zm9732 6050c-249,61 -479,339 -379,672 202,676 1206,394 1043,-284 -63,-259 -338,-467 -664,-388z"/>
    <path class="fil0" d="M3149 8376c939,2852 4991,2465 5082,-807 668,482 1399,661 2278,37 690,2239 4540,2538 6485,2202 94,-16 153,-37 241,-52 2824,-558 3477,-4938 237,-6245 62,-1135 -716,-1620 -1703,-1763 -1071,-2597 -4520,-1649 -4840,63 -78,167 -89,377 -141,428 -629,-791 -3138,-624 -3458,235 -48,-250 -103,-1631 -1556,-2053 -1534,-445 -3020,899 -2698,2450 41,196 125,404 134,454 -4177,-509 -4361,5358 -61,5051zm15119 -5465c109,0 198,88 198,198 0,109 -89,197 -198,197 -109,0 -198,-88 -198,-197 0,-110 89,-198 198,-198zm-7779 -1558c-101,55 -118,143 -74,228 41,78 140,109 228,65 187,-95 48,-403 -154,-293zm-10123 1324c-409,90 -298,563 -144,640 84,41 181,76 293,53 313,-65 312,-428 223,-552 -3,-4 -79,-77 -94,-89 -55,-48 -181,-74 -278,-52zm9733 6050c-249,61 -479,339 -379,672 201,676 1206,394 1042,-284 -62,-259 -337,-467 -663,-388z"/>
    <path class="fil0" d="M3451 8593c945,2852 5021,2465 5112,-806 672,481 1408,661 2292,36 694,2239 4567,2538 6523,2202 94,-16 154,-37 242,-52 2841,-558 3498,-4938 239,-6245 62,-1135 -720,-1620 -1713,-1763 -1078,-2597 -4547,-1649 -4869,63 -78,167 -90,377 -142,428 -633,-791 -3157,-624 -3478,236 -48,-251 -104,-1632 -1566,-2054 -1542,-445 -3037,899 -2713,2450 40,196 125,404 134,454 -4201,-509 -4386,5358 -61,5051zm15208 -5465c110,0 199,88 199,198 0,109 -89,198 -199,198 -110,0 -199,-89 -199,-198 0,-110 89,-198 199,-198zm-7825 -1558c-101,55 -119,143 -74,228 41,78 141,109 230,65 188,-94 47,-403 -156,-293zm-10182 1324c-412,90 -300,563 -145,640 84,41 182,76 295,53 314,-65 314,-428 224,-552 -4,-4 -80,-77 -94,-89 -56,-48 -183,-73 -280,-52zm9790 6050c-250,61 -481,339 -381,672 203,676 1213,394 1049,-284 -63,-259 -340,-467 -668,-388z"/>
    <path class="fil0" d="M14450 5218c415,19 825,482 755,1154 -70,672 -538,805 -845,799 -306,-6 -779,-471 -755,-1011 25,-539 429,-961 845,-942zm-10335 -1501c80,3 60,-5 32,-55 -69,-122 23,64 -220,53 -93,-4 -165,-77 -161,-163 4,-85 82,-151 175,-147 146,7 124,31 119,-16 -28,-248 -5,-61 -189,-56 -108,3 -192,-90 -187,-189 4,-100 96,-181 203,-172 93,8 186,163 186,67 -1,-131 53,-108 -132,-116 -132,-6 -234,-109 -228,-230 5,-122 116,-215 248,-209 214,10 199,162 238,117 35,-39 57,-118 8,-121 -146,-11 -260,-122 -254,-257 6,-134 130,-238 276,-232 284,13 211,282 280,227 25,-20 156,-116 92,-119 -173,-9 -307,-144 -300,-304 8,-159 154,-282 327,-274 172,8 307,143 299,303 -5,128 166,79 219,57 176,-74 215,-80 434,-150 252,-80 -36,871 -144,889 -254,43 -831,-75 -918,771 -130,1263 3221,1603 1995,4073 -1132,1760 -5152,1001 -4196,-1763 560,-1265 2733,-1304 3224,-201 136,305 171,654 -42,883 -334,360 -1494,179 -1339,-574 26,-131 171,-197 146,-120 -80,249 620,481 683,-15 -26,-1103 -2678,-605 -1913,1064 198,407 785,661 1307,685 359,16 591,11 856,-132 308,-259 -283,-160 -918,-187 -395,-16 -809,-224 -1003,-479 -84,-122 -244,-584 226,-1104 378,-417 1338,-407 1320,171 -10,235 -594,145 -415,-52 154,-170 -179,-151 -267,-69 -231,216 -369,983 817,1092 203,19 609,163 618,364 206,-115 440,-502 454,-801 31,-688 -496,-1180 -1024,-1625 -40,-34 -59,-28 -176,-33 -36,-2 -64,-30 -62,-63 4,-94 13,-88 -19,-124 -76,-86 -88,92 -217,85 -76,-4 -134,-61 -131,-129 8,-174 236,-63 108,-173 -98,-84 -39,95 -217,101 -81,2 -145,-68 -141,-143 3,-76 73,-138 154,-130 46,5 8,-33 -17,-71 -14,-21 -57,-82 -58,-46 -4,83 -80,147 -170,143 -90,-4 -160,-75 -156,-158 4,-83 80,-147 170,-143zm6378 830c236,522 374,2064 354,2515 -14,1332 -65,1458 481,747 44,-58 1,-158 -26,-242 -214,-682 -342,-2574 -6,-2877 606,-539 1309,-81 1379,449 65,-42 247,-73 321,-28 16,-326 -143,-655 -584,-873 -377,-208 -734,-136 -1131,61 -315,156 -840,133 -788,248zm2098 1048c-233,480 -1103,599 -1118,88 985,609 1426,-1033 278,-1006 -280,33 -521,299 -538,670 -47,1017 1049,1115 1579,336 -17,-65 -86,-81 -201,-88zm-756 -1854c-2,114 -5,233 -5,352 189,-11 247,4 318,17 43,-297 129,-564 302,-768 98,-114 97,-123 10,-142 -157,-34 -248,-50 -474,-6 -73,14 -146,250 -151,547zm628 1514c449,-179 839,-164 989,410 82,365 -127,979 5,1259 92,197 -540,69 -496,0 31,-49 58,-108 61,-173 20,-437 81,-1382 -672,-1132 -1,-4 -3,-6 -1,-10 58,-43 134,-288 114,-354zm-418 583c-23,37 -38,85 -47,127 -169,10 -190,7 -317,-38 1,-26 5,-68 9,-108 130,36 221,30 355,19zm-29 907c3,78 -12,128 -34,127 -452,-18 -412,17 -348,-178 89,-372 -27,-499 82,-464 94,31 121,32 223,28 83,-3 72,294 77,487zm-199 -2261c-3,57 -6,115 -10,172 31,-6 78,-1 111,1 37,1 116,21 149,38 14,3 26,8 39,15 1,-66 3,-133 6,-201 -55,-35 -246,-37 -295,-25zm5320 1301c234,238 -131,933 233,1316 190,186 469,205 711,122 35,-12 125,32 123,84 -14,352 -38,1121 -970,-21 -64,-79 -93,-110 -101,-51 -30,199 -97,446 -12,579 99,106 474,549 1301,471 146,-14 96,-123 87,-235 -55,-718 3,-1480 144,-2154 21,-97 24,-168 -71,-208 -185,-36 -306,238 -348,478 -214,1284 -970,677 -632,-267 49,-138 21,-262 -53,-246 -162,36 -347,46 -411,42 -86,-6 -51,39 -1,90zm-8726 -100c320,-159 184,1328 141,1587 1199,-37 -229,-1944 493,-1874 307,18 372,1253 346,1463 -54,245 402,190 408,64 18,-392 -290,-710 24,-1360 29,-55 129,-190 195,-187 154,7 205,1113 179,1489 -18,255 488,120 429,19 -48,-84 -67,-184 -81,-287 -58,-430 83,-724 -146,-1187 -334,-627 -913,-13 -891,115l-7 -20c-33,-136 -863,-981 -1142,146 0,0 -11,62 52,32zm6934 67c85,372 22,1010 -94,1287 -5,13 -98,63 -5,92 141,43 294,100 474,152 70,20 84,-24 49,-140 -128,-415 18,-1095 102,-1279 119,-241 794,-142 796,234 1,298 -112,1021 -198,1249 -52,138 -74,165 57,211 94,32 215,93 317,151 153,85 163,112 103,-150 -135,-596 375,-1338 -73,-1882 -329,-400 -826,-155 -955,-156 -344,-2 -268,-60 -458,32 -130,62 -139,95 -115,199zm-8720 -875c61,145 113,225 125,501 16,373 -5,983 487,1118 315,85 551,-109 613,-194 -24,495 169,801 -248,989 -297,134 -819,64 -938,246 -160,262 -416,498 -633,608 -49,25 -68,57 -7,71 400,95 2377,-756 2371,-1022 -211,-1041 -39,-1839 20,-2102 41,-183 -463,-154 -470,-53 -117,1605 -927,1589 -834,328 20,-428 48,-471 227,-543 164,-65 35,-195 -102,-164 -201,45 -155,133 -558,148 -77,3 -68,31 -53,69zm7805 668c236,11 557,383 500,750 -58,367 -315,560 -550,549 -236,-10 -464,-363 -450,-669 14,-306 264,-641 500,-630z"/>
   </g>
   <path class="fil1" d="M2465 11885l-366 -1073c-10,-35 -41,-65 -84,-65 -45,0 -78,30 -89,65l-385 1073c-11,43 11,96 65,119 9,0 9,0 20,0 43,0 77,-23 86,-65l76 -184 439 0 65 184c22,54 78,74 119,65 54,-23 74,-76 54,-119zm-612 -311l162 -462 158 462 -320 0zm1178 -474c-249,0 -453,202 -453,453l0 362c0,51 40,91 89,91 50,0 90,-40 90,-91l0 -362c0,-152 122,-275 274,-275 151,0 273,123 273,275l0 362c0,51 40,91 89,91 50,0 90,-40 90,-91l0 -362c0,-251 -204,-453 -452,-453zm1727 906c347,0 623,-287 623,-635 0,-340 -276,-624 -623,-624 -348,0 -623,284 -623,624 0,348 275,635 623,635zm0 -1084c247,0 450,202 450,449 0,256 -203,460 -450,460 -247,0 -449,-204 -449,-460 0,-247 202,-449 449,-449zm1169 178c-251,0 -452,201 -452,451 0,248 201,451 452,451 248,0 452,-203 452,-451 0,0 0,-2 0,-2l0 -807c0,-49 -40,-89 -90,-89 -49,0 -88,40 -88,89l0 450c-76,-58 -172,-92 -274,-92zm0 724c-152,0 -274,-124 -274,-273 0,-151 122,-273 274,-273 151,0 274,122 274,271l0 2c0,0 0,0 0,0 0,151 -123,273 -274,273zm1190 -715c-48,0 -88,39 -88,88l0 447c0,102 -83,185 -186,185 -100,0 -185,-83 -185,-185l0 -447c0,-49 -40,-88 -88,-88 -49,0 -89,39 -89,88l0 449c0,0 0,0 0,1 2,199 164,359 362,359 69,0 132,-18 186,-51l0 131c0,107 -86,194 -195,194 -73,0 -140,-42 -174,-109 -20,-44 -74,-64 -117,-42 -45,22 -63,76 -42,120 63,128 191,209 333,209 206,0 373,-168 373,-372l0 -889c0,-49 -39,-88 -90,-88zm732 425c-150,-115 -344,-31 -344,-160 0,-62 57,-99 124,-99 50,0 126,16 151,66 22,33 40,61 83,61 49,0 88,-41 92,-86 0,-110 -132,-169 -150,-178 -54,-27 -113,-42 -173,-42 -158,0 -304,103 -304,276 0,198 189,257 299,270 86,9 149,34 149,95 -1,14 -10,92 -126,92 -77,-3 -120,-26 -162,-83 -16,-22 -43,-34 -68,-34 -51,0 -92,42 -92,87 0,9 0,18 4,25 48,126 196,182 322,182 263,0 301,-218 301,-269 0,-74 -42,-151 -106,-203zm754 0c-149,-115 -344,-31 -344,-160 0,-62 58,-99 124,-99 51,0 127,16 152,66 21,33 39,61 83,61 48,0 88,-41 91,-86 0,-110 -131,-169 -149,-178 -54,-27 -114,-42 -173,-42 -158,0 -304,103 -304,276 0,198 189,257 299,270 86,9 149,34 149,95 -2,14 -11,92 -126,92 -77,-3 -121,-26 -162,-83 -16,-22 -43,-34 -68,-34 -51,0 -92,42 -92,87 0,9 0,18 3,25 49,126 197,182 323,182 263,0 300,-218 300,-269 0,-74 -41,-151 -106,-203zm654 -434c-250,0 -452,202 -452,454 0,248 202,452 452,452 67,0 158,2 277,-78 42,-27 65,-73 44,-119 -22,-43 -78,-68 -119,-41 -87,56 -161,59 -202,59 -121,0 -222,-77 -259,-185l621 0c50,0 90,-40 90,-88 0,-296 -234,-454 -452,-454zm0 178c108,0 223,58 261,186l-520 0c37,-108 138,-186 259,-186zm1196 -169c-49,0 -88,39 -88,88l0 447c0,102 -83,185 -186,185 -101,0 -185,-83 -185,-185l0 -447c0,-49 -40,-88 -89,-88 -48,0 -88,39 -88,88l0 449c0,0 0,0 0,1 2,199 164,359 362,359 69,0 132,-18 186,-51l0 131c0,107 -87,194 -195,194 -74,0 -140,-42 -175,-109 -19,-44 -73,-64 -117,-42 -45,22 -63,76 -41,120 63,128 191,209 333,209 205,0 373,-168 373,-372l0 -889c0,-49 -40,-88 -90,-88zm1194 897c250,0 452,-204 452,-453 0,-251 -202,-453 -452,-453 -248,0 -452,202 -452,453 0,249 204,453 452,453zm0 -728c151,0 274,123 274,275 0,150 -123,274 -274,274 -151,0 -274,-124 -274,-274 0,-152 123,-275 274,-275zm973 -178l-159 0c0,-81 25,-151 79,-205 31,-31 65,-53 103,-65 47,-17 70,-69 54,-114 -16,-47 -68,-72 -113,-54 -65,22 -121,58 -170,106 -86,87 -133,204 -131,332l-99 0c-49,0 -88,39 -88,88 0,51 39,90 88,90l99 0 0 637c0,51 39,91 88,91 51,0 90,-40 90,-91l0 -637 159 0c50,0 90,-39 90,-90 0,-49 -40,-88 -90,-88l0 0zm1028 906c155,0 306,-58 422,-160 115,-105 189,-245 207,-399 10,-93 1,-183 -26,-270 -27,-84 -70,-160 -127,-225 -58,-66 -130,-119 -211,-155 -85,-36 -175,-56 -270,-56l-261 0c-49,0 -91,42 -91,92l0 1083c0,48 42,90 91,90l266 0zm-176 -180l0 -904 171 0c137,0 261,54 347,149 85,95 123,222 107,357 -27,227 -220,398 -449,398l-176 0zm1359 -723c-248,0 -452,202 -452,452l0 361c0,48 40,90 90,90 49,0 89,-42 89,-90l0 -361c0,-151 122,-273 273,-273 51,0 90,-42 90,-90 0,-49 -39,-89 -90,-89zm537 -3c-250,0 -452,202 -452,454 0,248 202,452 452,452 67,0 159,2 278,-78 41,-27 64,-73 43,-119 -22,-43 -78,-68 -119,-41 -87,56 -160,59 -202,59 -121,0 -221,-77 -259,-185l621 0c51,0 90,-40 90,-88 0,-296 -234,-454 -452,-454zm0 178c108,0 223,58 261,186l-520 0c38,-108 138,-186 259,-186zm1018 -173c-254,0 -456,202 -456,457 0,255 202,444 456,444 102,0 189,-25 266,-90l0 0c0,52 51,90 87,90 52,0 90,-38 90,-90l0 -354c0,-255 -189,-457 -443,-457zm0 724c-152,0 -279,-115 -279,-267 0,-152 127,-280 279,-280 151,0 266,128 266,280 0,152 -115,267 -266,267zm1815 -364c0,-198 -162,-360 -362,-360 -108,0 -205,47 -272,125 -66,-78 -164,-125 -272,-125 -200,0 -362,162 -362,360l0 454c0,51 40,90 90,90 49,0 89,-39 89,-90l0 -454c0,-100 82,-181 183,-181 101,0 182,81 182,181l0 454c0,51 42,90 90,90 49,0 89,-39 89,-90l0 -454c0,-100 82,-181 183,-181 101,0 184,81 184,181 0,4 0,6 0,8 0,3 0,5 0,9l0 437c0,51 40,90 88,90 49,0 90,-39 90,-90l0 -437c0,-4 0,-6 -2,-9 2,-2 2,-4 2,-8zm641 69c-149,-115 -344,-31 -344,-160 0,-62 58,-99 125,-99 50,0 126,16 151,66 22,33 40,61 83,61 49,0 88,-41 92,-86 0,-110 -132,-169 -150,-178 -54,-27 -113,-42 -173,-42 -158,0 -304,103 -304,276 0,198 189,257 299,270 86,9 149,34 149,95 -1,14 -10,92 -126,92 -77,-3 -120,-26 -162,-83 -16,-22 -43,-34 -68,-34 -51,0 -92,42 -92,87 0,9 0,18 4,25 48,126 196,182 322,182 263,0 301,-218 301,-269 0,-74 -42,-151 -107,-203z"/>
   <path class="fil1" d="M14221 9197l-395 0 434 -553c67,-85 62,-213 22,-307 -34,-88 -104,-158 -193,-198 -135,-59 -300,-34 -412,78l0 2c-63,63 -105,151 -105,248 0,49 42,88 90,88 51,0 91,-39 91,-88 0,-65 36,-124 90,-157 165,-93 345,78 268,245l-526 669c-14,21 -23,36 -23,61 0,48 37,86 86,86l573 0c48,0 86,-38 86,-86 0,-49 -38,-88 -86,-88zm927 -482l0 -240c0,0 0,-2 0,-2 -1,-200 -165,-363 -365,-363 -200,0 -362,163 -364,363 0,0 0,2 0,2l0 294c0,0 0,0 0,0l0 238c0,2 0,2 0,2 2,200 164,362 364,362 200,0 364,-162 365,-362 0,0 0,0 0,-2l0 -292c0,0 0,0 0,0zm-365 478c-103,0 -186,-83 -186,-188l0 -290c0,0 0,0 0,0l0 -239c0,-103 83,-187 186,-187 104,0 187,84 187,187l0 293c0,0 0,0 0,0l0 236c0,105 -83,188 -187,188zm437 -994c0,48 40,88 92,88l0 994c0,51 40,90 90,90 49,0 89,-39 89,-90l0 -1089c-2,-35 -33,-82 -74,-82 -4,0 -6,0 -106,0 -51,0 -91,38 -91,89zm1243 -40c-16,-27 -45,-45 -77,-45l-685 0c-50,0 -90,40 -90,90 0,51 40,90 90,90l519 0 -605 930c-27,41 -15,97 27,124 14,11 32,14 49,14 28,0 57,-14 75,-41l695 -1068 0 0c18,-33 18,-63 2,-94z"/>
  </g>
  <g id="_2593991399648">
   <path class="fil2" d="M3518 8234c939,2852 4992,2465 5082,-807 668,482 1400,661 2278,37 691,2239 4541,2538 6485,2202 94,-16 153,-37 241,-52 2824,-558 3478,-4938 237,-6245 63,-1135 -715,-1620 -1703,-1763 -1071,-2597 -4520,-1649 -4840,63 -78,167 -89,377 -141,428 -629,-791 -3138,-624 -3457,235 -48,-250 -104,-1631 -1557,-2053 -1533,-445 -3020,899 -2698,2450 41,196 125,404 134,454 -4177,-509 -4360,5358 -61,5051zm15119 -5465c109,0 198,88 198,198 0,109 -89,197 -198,197 -109,0 -198,-88 -198,-197 0,-110 89,-198 198,-198zm-7779 -1558c-100,55 -118,143 -74,228 41,78 141,109 229,65 186,-95 47,-403 -155,-293zm-10122 1324c-410,90 -299,563 -145,640 84,41 181,76 293,53 313,-65 312,-428 223,-552 -3,-4 -79,-77 -93,-89 -56,-48 -182,-74 -278,-52zm9732 6050c-249,61 -479,339 -379,672 202,676 1206,394 1043,-284 -63,-259 -338,-467 -664,-388z"/>
   <path class="fil3" d="M3149 8376c939,2852 4991,2465 5082,-807 668,482 1399,661 2278,37 690,2239 4540,2538 6485,2202 94,-16 153,-37 241,-52 2824,-558 3477,-4938 237,-6245 62,-1135 -716,-1620 -1703,-1763 -1071,-2597 -4520,-1649 -4840,63 -78,167 -89,377 -141,428 -629,-791 -3138,-624 -3458,235 -48,-250 -103,-1631 -1556,-2053 -1534,-445 -3020,899 -2698,2450 41,196 125,404 134,454 -4177,-509 -4361,5358 -61,5051zm15119 -5465c109,0 198,88 198,198 0,109 -89,197 -198,197 -109,0 -198,-88 -198,-197 0,-110 89,-198 198,-198zm-7779 -1558c-101,55 -118,143 -74,228 41,78 140,109 228,65 187,-95 48,-403 -154,-293zm-10123 1324c-409,90 -298,563 -144,640 84,41 181,76 293,53 313,-65 312,-428 223,-552 -3,-4 -79,-77 -94,-89 -55,-48 -181,-74 -278,-52zm9733 6050c-249,61 -479,339 -379,672 201,676 1206,394 1042,-284 -62,-259 -337,-467 -663,-388z"/>
   <path class="fil4" d="M3451 8593c945,2852 5021,2465 5112,-806 672,481 1408,661 2292,36 694,2239 4567,2538 6523,2202 94,-16 154,-37 242,-52 2841,-558 3498,-4938 239,-6245 62,-1135 -720,-1620 -1713,-1763 -1078,-2597 -4547,-1649 -4869,63 -78,167 -90,377 -142,428 -633,-791 -3157,-624 -3478,236 -48,-251 -104,-1632 -1566,-2054 -1542,-445 -3037,899 -2713,2450 40,196 125,404 134,454 -4201,-509 -4386,5358 -61,5051zm15208 -5465c110,0 199,88 199,198 0,109 -89,198 -199,198 -110,0 -199,-89 -199,-198 0,-110 89,-198 199,-198zm-7825 -1558c-101,55 -119,143 -74,228 41,78 141,109 230,65 188,-94 47,-403 -156,-293zm-10182 1324c-412,90 -300,563 -145,640 84,41 182,76 295,53 314,-65 314,-428 223,-552 -3,-4 -79,-77 -93,-89 -56,-48 -183,-73 -280,-52zm9790 6050c-250,61 -481,339 -381,672 203,676 1213,394 1049,-284 -63,-259 -340,-467 -668,-388z"/>
   <path class="fil0" d="M14449 5218c416,19 826,482 756,1154 -70,672 -539,805 -845,799 -306,-6 -779,-471 -755,-1011 25,-539 429,-961 844,-942zm-10334 -1501c80,3 60,-5 32,-55 -69,-122 23,64 -220,53 -93,-4 -165,-77 -161,-163 4,-85 82,-151 175,-147 146,7 124,31 119,-16 -28,-248 -5,-61 -189,-56 -108,3 -192,-90 -187,-189 4,-100 96,-181 203,-172 93,8 186,163 186,67 -1,-131 53,-108 -132,-116 -132,-6 -234,-109 -228,-230 5,-122 116,-215 248,-209 214,10 198,162 238,117 35,-39 57,-118 8,-121 -146,-11 -260,-122 -254,-257 6,-134 130,-238 276,-232 284,13 211,282 280,227 25,-20 156,-116 92,-119 -173,-9 -307,-144 -300,-304 8,-159 154,-282 327,-274 172,8 307,143 299,303 -5,128 166,79 219,57 176,-74 215,-80 434,-150 252,-80 -36,871 -144,889 -254,43 -831,-75 -918,771 -130,1263 3221,1603 1995,4073 -1132,1760 -5152,1001 -4196,-1763 560,-1265 2733,-1304 3224,-201 136,305 171,654 -42,883 -334,360 -1494,179 -1339,-574 26,-131 171,-197 146,-120 -80,249 620,481 683,-15 -26,-1103 -2678,-605 -1913,1064 198,407 785,661 1307,685 359,16 591,11 856,-132 308,-259 -283,-160 -918,-187 -395,-16 -809,-224 -1003,-479 -84,-122 -244,-584 226,-1104 378,-417 1338,-407 1320,171 -10,235 -594,145 -415,-52 154,-170 -179,-151 -267,-69 -231,216 -369,983 817,1092 203,19 609,163 618,364 206,-115 440,-502 454,-801 31,-688 -496,-1180 -1024,-1625 -40,-34 -59,-28 -176,-33 -36,-2 -64,-30 -62,-63 4,-94 13,-88 -19,-124 -76,-86 -88,92 -217,85 -76,-4 -134,-61 -131,-129 8,-174 236,-63 108,-173 -98,-84 -39,95 -217,101 -81,2 -145,-68 -141,-143 3,-76 73,-138 154,-130 46,5 8,-33 -17,-71 -14,-21 -57,-82 -58,-46 -4,83 -80,147 -170,143 -90,-4 -160,-75 -156,-158 4,-83 80,-147 170,-143zm6378 830c236,522 374,2064 354,2515 -14,1332 -65,1458 481,747 44,-58 1,-158 -26,-242 -214,-682 -342,-2574 -6,-2877 606,-539 1309,-81 1379,449 65,-42 247,-73 321,-28 16,-326 -143,-655 -584,-873 -377,-208 -734,-136 -1131,61 -315,156 -840,133 -788,248zm2098 1048c-233,480 -1103,599 -1118,88 985,609 1426,-1033 278,-1006 -280,33 -521,299 -538,670 -47,1017 1049,1115 1579,336 -17,-65 -86,-81 -201,-88zm-756 -1854c-2,114 -5,233 -5,352 189,-11 247,4 318,17 43,-297 129,-564 302,-768 98,-114 97,-123 10,-142 -157,-34 -248,-50 -474,-6 -73,14 -146,250 -151,547zm628 1514c449,-179 839,-164 989,410 82,365 -127,979 5,1259 92,197 -540,69 -496,0 31,-49 58,-108 61,-173 20,-437 81,-1382 -672,-1132 -1,-4 -3,-6 -1,-10 58,-43 134,-288 114,-354zm-418 583c-23,37 -38,85 -47,127 -169,10 -190,7 -317,-38 1,-26 5,-68 9,-108 130,36 221,30 355,19zm-29 907c3,78 -12,128 -34,127 -452,-18 -412,17 -348,-178 89,-372 -27,-499 82,-464 94,31 121,32 223,28 83,-3 72,294 77,487zm-199 -2261c-3,57 -6,115 -10,172 31,-6 78,-1 111,1 37,1 116,21 149,38 14,3 26,8 39,15 1,-66 3,-133 6,-201 -55,-35 -246,-37 -295,-25zm5320 1301c234,238 -131,933 233,1316 190,186 469,205 711,122 35,-12 125,32 123,84 -14,352 -38,1121 -970,-21 -64,-79 -93,-110 -101,-51 -30,199 -97,446 -12,579 99,106 474,549 1301,471 146,-14 96,-123 87,-235 -55,-718 3,-1480 144,-2154 21,-97 24,-168 -71,-208 -185,-36 -306,238 -348,478 -214,1284 -970,677 -632,-267 49,-138 21,-262 -53,-246 -162,36 -347,46 -411,42 -86,-6 -51,39 -1,90zm-8726 -100c320,-159 184,1328 141,1587 1199,-37 -229,-1944 493,-1874 307,18 372,1253 346,1463 -54,245 402,190 408,64 18,-392 -290,-710 24,-1360 29,-55 129,-190 195,-187 154,7 205,1113 179,1489 -18,255 488,120 429,19 -48,-84 -67,-184 -81,-287 -58,-430 83,-724 -146,-1187 -334,-627 -913,-13 -891,115l-7 -20c-33,-136 -863,-981 -1142,146 0,0 -11,62 52,32zm6934 67c85,372 22,1010 -94,1287 -5,13 -98,63 -5,92 141,43 294,100 474,152 70,20 84,-24 49,-140 -128,-415 18,-1095 102,-1279 119,-241 794,-142 796,234 1,298 -112,1021 -198,1249 -52,138 -74,165 57,211 94,32 215,93 317,151 153,85 163,112 103,-150 -135,-596 375,-1338 -73,-1882 -329,-400 -826,-155 -955,-156 -344,-2 -268,-60 -458,32 -130,62 -139,95 -115,199zm-8720 -875c61,145 113,225 125,501 16,373 -5,983 487,1118 315,85 551,-109 613,-194 -24,495 169,801 -248,989 -297,134 -819,64 -938,246 -160,262 -416,498 -633,608 -49,25 -68,57 -7,71 400,95 2377,-756 2371,-1022 -211,-1041 -39,-1839 20,-2102 41,-183 -463,-154 -470,-53 -117,1605 -927,1589 -834,328 20,-428 48,-471 227,-543 164,-65 35,-195 -102,-164 -201,45 -155,133 -558,148 -77,3 -68,31 -53,69zm7805 668c236,11 557,383 500,750 -58,367 -315,560 -550,549 -236,-10 -464,-363 -450,-669 14,-306 264,-641 500,-630z"/>
  </g>
  <path class="fil1" d="M2465 11885l-366 -1073c-10,-35 -41,-65 -84,-65 -45,0 -78,30 -89,65l-385 1073c-11,43 11,96 65,119 9,0 9,0 20,0 43,0 77,-23 86,-65l76 -184 439 0 65 184c22,54 78,74 119,65 54,-23 74,-76 54,-119zm-612 -311l162 -462 158 462 -320 0zm1178 -474c-249,0 -453,202 -453,453l0 362c0,51 40,91 89,91 50,0 90,-40 90,-91l0 -362c0,-152 122,-275 274,-275 151,0 273,123 273,275l0 362c0,51 40,91 89,91 50,0 90,-40 90,-91l0 -362c0,-251 -204,-453 -452,-453zm1727 906c347,0 623,-287 623,-635 0,-340 -276,-624 -623,-624 -348,0 -623,284 -623,624 0,348 275,635 623,635zm0 -1084c247,0 450,202 450,449 0,256 -203,460 -450,460 -247,0 -449,-204 -449,-460 0,-247 202,-449 449,-449zm1169 178c-251,0 -452,201 -452,451 0,248 201,451 452,451 248,0 452,-203 452,-451 0,0 0,-2 0,-2l0 -807c0,-49 -40,-89 -90,-89 -49,0 -89,40 -89,89l0 450c-75,-58 -171,-92 -273,-92zm0 724c-152,0 -274,-124 -274,-273 0,-151 122,-273 274,-273 151,0 273,122 273,271l0 2c0,0 0,0 0,0 0,151 -122,273 -273,273zm1190 -715c-48,0 -88,39 -88,88l0 447c0,102 -83,185 -186,185 -100,0 -185,-83 -185,-185l0 -447c0,-49 -40,-88 -88,-88 -49,0 -89,39 -89,88l0 449c0,0 0,0 0,1 2,199 164,359 362,359 69,0 132,-18 186,-51l0 131c0,107 -86,194 -195,194 -73,0 -140,-42 -174,-109 -20,-44 -74,-64 -117,-42 -45,22 -63,76 -42,120 63,128 191,209 333,209 206,0 373,-168 373,-372l0 -889c0,-49 -39,-88 -90,-88zm732 425c-150,-115 -345,-31 -345,-160 0,-62 58,-99 125,-99 50,0 126,16 151,66 22,33 40,61 83,61 49,0 88,-41 92,-86 0,-110 -132,-169 -150,-178 -54,-27 -113,-42 -173,-42 -158,0 -304,103 -304,276 0,198 189,257 299,270 86,9 149,34 149,95 -1,14 -10,92 -126,92 -77,-3 -120,-26 -162,-83 -16,-22 -43,-34 -68,-34 -51,0 -92,42 -92,87 0,9 0,18 4,25 48,126 196,182 322,182 263,0 301,-218 301,-269 0,-74 -42,-151 -106,-203zm754 0c-149,-115 -344,-31 -344,-160 0,-62 58,-99 124,-99 51,0 127,16 152,66 21,33 39,61 83,61 48,0 88,-41 91,-86 0,-110 -131,-169 -149,-178 -54,-27 -114,-42 -173,-42 -158,0 -304,103 -304,276 0,198 189,257 299,270 86,9 149,34 149,95 -2,14 -11,92 -126,92 -77,-3 -121,-26 -162,-83 -16,-22 -43,-34 -68,-34 -51,0 -92,42 -92,87 0,9 0,18 3,25 49,126 197,182 323,182 263,0 300,-218 300,-269 0,-74 -41,-151 -106,-203zm654 -434c-250,0 -452,202 -452,454 0,248 202,452 452,452 67,0 158,2 277,-78 42,-27 65,-73 44,-119 -22,-43 -78,-68 -119,-41 -87,56 -161,59 -202,59 -121,0 -222,-77 -259,-185l621 0c50,0 90,-40 90,-88 0,-296 -234,-454 -452,-454zm0 178c108,0 223,58 261,186l-520 0c37,-108 138,-186 259,-186zm1196 -169c-49,0 -88,39 -88,88l0 447c0,102 -83,185 -186,185 -101,0 -185,-83 -185,-185l0 -447c0,-49 -40,-88 -89,-88 -48,0 -88,39 -88,88l0 449c0,0 0,0 0,1 2,199 164,359 362,359 69,0 132,-18 186,-51l0 131c0,107 -87,194 -195,194 -74,0 -140,-42 -175,-109 -19,-44 -73,-64 -117,-42 -45,22 -63,76 -41,120 63,128 191,209 333,209 205,0 373,-168 373,-372l0 -889c0,-49 -40,-88 -90,-88zm1194 897c250,0 452,-204 452,-453 0,-251 -202,-453 -452,-453 -249,0 -452,202 -452,453 0,249 203,453 452,453zm0 -728c151,0 274,123 274,275 0,150 -123,274 -274,274 -151,0 -274,-124 -274,-274 0,-152 123,-275 274,-275zm973 -178l-159 0c0,-81 25,-151 79,-205 31,-31 65,-53 103,-65 47,-17 70,-69 54,-114 -16,-47 -68,-72 -113,-54 -65,22 -121,58 -170,106 -86,87 -133,204 -131,332l-99 0c-49,0 -88,39 -88,88 0,51 39,90 88,90l99 0 0 637c0,51 39,91 88,91 51,0 90,-40 90,-91l0 -637 159 0c50,0 90,-39 90,-90 0,-49 -40,-88 -90,-88l0 0zm1028 906c155,0 306,-58 422,-160 115,-105 189,-245 207,-399 10,-93 1,-183 -26,-270 -27,-84 -70,-160 -127,-225 -58,-66 -130,-119 -211,-155 -85,-36 -175,-56 -270,-56l-261 0c-49,0 -91,42 -91,92l0 1083c0,48 42,90 91,90l266 0zm-176 -180l0 -904 171 0c137,0 261,54 347,149 85,95 123,222 107,357 -27,227 -220,398 -449,398l-176 0zm1359 -723c-248,0 -452,202 -452,452l0 361c0,48 40,90 90,90 49,0 89,-42 89,-90l0 -361c0,-151 122,-273 273,-273 51,0 90,-42 90,-90 0,-49 -39,-89 -90,-89zm537 -3c-250,0 -452,202 -452,454 0,248 202,452 452,452 67,0 159,2 278,-78 41,-27 64,-73 43,-119 -22,-43 -78,-68 -119,-41 -87,56 -160,59 -202,59 -121,0 -221,-77 -259,-185l621 0c51,0 90,-40 90,-88 0,-296 -234,-454 -452,-454zm0 178c108,0 223,58 261,186l-520 0c38,-108 138,-186 259,-186zm1018 -173c-254,0 -456,202 -456,457 0,255 202,444 456,444 102,0 189,-25 266,-90l0 0c0,52 51,90 87,90 52,0 90,-38 90,-90l0 -354c0,-255 -189,-457 -443,-457zm0 724c-152,0 -279,-115 -279,-267 0,-152 127,-280 279,-280 151,0 266,128 266,280 0,152 -115,267 -266,267zm1815 -364c0,-198 -162,-360 -362,-360 -108,0 -205,47 -272,125 -66,-78 -164,-125 -272,-125 -200,0 -362,162 -362,360l0 454c0,51 40,90 90,90 49,0 89,-39 89,-90l0 -454c0,-100 82,-181 183,-181 101,0 182,81 182,181l0 454c0,51 42,90 90,90 49,0 89,-39 89,-90l0 -454c0,-100 82,-181 183,-181 101,0 184,81 184,181 0,4 0,6 0,8 0,3 0,5 0,9l0 437c0,51 40,90 88,90 49,0 90,-39 90,-90l0 -437c0,-4 0,-6 -2,-9 2,-2 2,-4 2,-8zm641 69c-149,-115 -344,-31 -344,-160 0,-62 58,-99 125,-99 50,0 126,16 151,66 22,33 40,61 83,61 49,0 88,-41 92,-86 0,-110 -132,-169 -150,-178 -54,-27 -113,-42 -173,-42 -158,0 -304,103 -304,276 0,198 189,257 299,270 86,9 149,34 149,95 -1,14 -10,92 -126,92 -77,-3 -120,-26 -162,-83 -16,-22 -43,-34 -68,-34 -51,0 -92,42 -92,87 0,9 0,18 4,25 48,126 196,182 322,182 263,0 301,-218 301,-269 0,-74 -42,-151 -107,-203z"/>
  <path class="fil1" d="M14221 9197l-395 0 434 -553c67,-85 62,-213 22,-307 -34,-88 -104,-158 -193,-198 -135,-59 -300,-34 -412,78l0 2c-63,63 -105,151 -105,248 0,49 42,88 90,88 51,0 91,-39 91,-88 0,-65 36,-124 90,-157 165,-93 345,78 268,245l-526 669c-14,21 -23,36 -23,61 0,48 37,86 86,86l573 0c48,0 86,-38 86,-86 0,-49 -38,-88 -86,-88zm927 -482l0 -240c0,0 0,-2 0,-2 -1,-200 -165,-363 -365,-363 -200,0 -362,163 -364,363 0,0 0,2 0,2l0 294c0,0 0,0 0,0l0 238c0,2 0,2 0,2 2,200 164,362 364,362 200,0 364,-162 365,-362 0,0 0,0 0,-2l0 -292c0,0 0,0 0,0zm-365 478c-103,0 -186,-83 -186,-188l0 -290c0,0 0,0 0,0l0 -239c0,-103 83,-187 186,-187 104,0 187,84 187,187l0 293c0,0 0,0 0,0l0 236c0,105 -83,188 -187,188zm437 -994c0,48 40,88 92,88l0 994c0,51 40,90 90,90 49,0 89,-39 89,-90l0 -1089c-2,-35 -33,-82 -74,-82 -4,0 -6,0 -107,0 -50,0 -90,38 -90,89zm1243 -40c-16,-27 -45,-45 -77,-45l-685 0c-50,0 -90,40 -90,90 0,51 40,90 90,90l519 0 -605 930c-27,41 -15,97 27,124 14,11 32,14 49,14 28,0 57,-14 75,-41l695 -1068 0 0c18,-33 18,-63 2,-94z"/>
 </g>
</svg>
